<svg width="16" height="22" viewBox="0 0 16 22" fill="none" xmlns="http://www.w3.org/2000/svg">
<path fill-rule="evenodd" clip-rule="evenodd" d="M4.667 0.249994C3.79998 0.249351 2.95526 0.524721 2.2552 1.03622C1.55514 1.54772 1.03607 2.26879 0.773182 3.09499C0.510294 3.92119 0.517234 4.80963 0.792997 5.63163C1.06876 6.45362 1.59903 7.16649 2.307 7.66699C1.77396 8.04404 1.33925 8.54357 1.03942 9.12357C0.739585 9.70357 0.583401 10.3471 0.583997 11C0.583997 12.376 1.265 13.594 2.309 14.333C1.73707 14.7378 1.27896 15.2831 0.978737 15.9162C0.678517 16.5493 0.546292 17.2491 0.594787 17.9481C0.643281 18.6472 0.870861 19.322 1.25563 19.9076C1.6404 20.4932 2.16941 20.9699 2.79176 21.2919C3.41411 21.6139 4.10886 21.7703 4.80915 21.7461C5.50945 21.7219 6.19172 21.5179 6.79034 21.1536C7.38895 20.7894 7.88375 20.2772 8.22713 19.6664C8.57052 19.0556 8.75092 18.3667 8.751 17.666V14.162C9.17577 14.5061 9.66533 14.7615 10.1906 14.9128C10.7159 15.0642 11.2663 15.1086 11.8091 15.0432C12.3518 14.9779 12.8759 14.8043 13.3503 14.5326C13.8247 14.2609 14.2397 13.8967 14.5707 13.4616C14.9017 13.0266 15.142 12.5294 15.2773 11.9997C15.4125 11.4701 15.44 10.9186 15.3582 10.3781C15.2763 9.83757 15.0868 9.319 14.8007 8.85312C14.5147 8.38725 14.138 7.98356 13.693 7.66599C14.401 7.1655 14.9312 6.45262 15.207 5.63063C15.4828 4.80863 15.4897 3.92019 15.2268 3.09399C14.9639 2.26779 14.4449 1.54672 13.7448 1.03522C13.0447 0.523721 12.2 0.248351 11.333 0.248994L4.667 0.249994ZM7.25 13.583H4.667C4.32779 13.583 3.99191 13.5162 3.67853 13.3864C3.36514 13.2566 3.08039 13.0663 2.84054 12.8265C2.60069 12.5866 2.41042 12.3018 2.28062 11.9885C2.15081 11.6751 2.084 11.3392 2.084 11C2.084 10.6608 2.15081 10.3249 2.28062 10.0115C2.41042 9.69814 2.60069 9.41339 2.84054 9.17354C3.08039 8.93368 3.36514 8.74342 3.67853 8.61361C3.99191 8.48381 4.32779 8.41699 4.667 8.41699H7.25V11V13.583ZM4.667 6.91699H7.25V1.74999H4.667C3.98181 1.74999 3.32469 2.02218 2.84019 2.50668C2.35569 2.99118 2.0835 3.64831 2.0835 4.33349C2.0835 5.01868 2.35569 5.6758 2.84019 6.1603C3.32469 6.6448 3.98181 6.91699 4.667 6.91699ZM13.917 4.33299C13.9173 5.0177 13.6457 5.6745 13.1619 6.15904C12.6781 6.64357 12.0217 6.9162 11.337 6.91699H8.75V1.74999H11.334C11.6732 1.74999 12.0091 1.81681 12.3225 1.94661C12.6359 2.07642 12.9206 2.26668 13.1605 2.50654C13.4003 2.74639 13.5906 3.03114 13.7204 3.34452C13.8502 3.65791 13.917 3.99379 13.917 4.33299ZM8.75 10.997C8.75079 10.313 9.02287 9.65721 9.50654 9.17354C9.99021 8.68986 10.646 8.41779 11.33 8.41699H11.336C11.8466 8.41759 12.3456 8.56951 12.7699 8.85356C13.1942 9.13761 13.5248 9.54105 13.72 10.0129C13.9151 10.4848 13.966 11.0039 13.8662 11.5046C13.7665 12.0054 13.5205 12.4654 13.1595 12.8264C12.7984 13.1875 12.3384 13.4335 11.8376 13.5332C11.3369 13.633 10.8178 13.5821 10.3459 13.3869C9.87405 13.1918 9.47061 12.8612 9.18656 12.4369C8.90251 12.0126 8.75059 11.5136 8.75 11.003V10.997ZM4.667 15.083C4.15617 15.083 3.65681 15.2345 3.23206 15.5182C2.80731 15.802 2.47624 16.2054 2.28071 16.6773C2.08518 17.1492 2.03397 17.6685 2.13356 18.1695C2.23314 18.6706 2.47905 19.1308 2.84019 19.4921C3.20133 19.8534 3.66148 20.0995 4.16247 20.1992C4.66345 20.299 5.18278 20.248 5.65478 20.0527C6.12677 19.8573 6.53025 19.5264 6.8142 19.1018C7.09814 18.6771 7.2498 18.1778 7.25 17.667V15.083H4.667Z" fill="black"/>
</svg>
