<svg width="30" height="24" viewBox="0 0 30 24" fill="none" xmlns="http://www.w3.org/2000/svg">
<path d="M23.75 17H6.25C4.87125 17 3.75 17.897 3.75 19C3.75 20.103 4.87125 21 6.25 21H23.75C25.1288 21 26.25 20.103 26.25 19C26.25 17.897 25.1288 17 23.75 17ZM23.75 10H6.25C4.87125 10 3.75 10.897 3.75 12C3.75 13.103 4.87125 14 6.25 14H23.75C25.1288 14 26.25 13.103 26.25 12C26.25 10.897 25.1288 10 23.75 10ZM23.75 3H6.25C4.87125 3 3.75 3.897 3.75 5C3.75 6.103 4.87125 7 6.25 7H23.75C25.1288 7 26.25 6.103 26.25 5C26.25 3.897 25.1288 3 23.75 3Z" fill="black"/>
</svg>
