<svg width="24" height="24" viewBox="0 0 24 24" fill="none" xmlns="http://www.w3.org/2000/svg">
<path d="M6 7.5V7.2C6 6.08 6 5.52 6.218 5.092C6.41 4.715 6.715 4.41 7.092 4.218C7.52 4 8.08 4 9.2 4H17.8C18.92 4 19.48 4 19.907 4.218C20.284 4.41 20.59 4.715 20.782 5.092C21 5.519 21 6.079 21 7.197V13.803C21 14.921 21 15.48 20.782 15.907C20.5903 16.2836 20.2843 16.5898 19.908 16.782C19.48 17 18.92 17 17.803 17H10.5M3 16.8V11.2C3 10.08 3 9.52 3.218 9.092C3.41 8.715 3.715 8.41 4.092 8.218C4.52 8 5.08 8 6.2 8H6.8C7.92 8 8.48 8 8.907 8.218C9.284 8.41 9.59 8.715 9.782 9.092C10 9.519 10 10.079 10 11.197V16.803C10 17.921 10 18.48 9.782 18.907C9.59 19.2837 9.28371 19.59 8.907 19.782C8.48 20 7.921 20 6.803 20H6.197C5.079 20 4.519 20 4.092 19.782C3.71558 19.5899 3.40963 19.2836 3.218 18.907C3 18.48 3 17.92 3 16.8Z" stroke="black" stroke-width="2" stroke-linecap="round" stroke-linejoin="round"/>
</svg>
