<svg width="20" height="23" viewBox="0 0 20 23" fill="none" xmlns="http://www.w3.org/2000/svg">
<path d="M8.99 0.974011C11.91 -0.885989 15.947 -0.0179896 17.991 2.90801C18.4762 3.58695 18.821 4.35594 19.0051 5.16989C19.1891 5.98384 19.2088 6.82635 19.063 7.64801C18.9212 8.43261 18.6218 9.18033 18.183 9.84601C18.823 11.067 19.038 12.466 18.793 13.823C18.6485 14.6284 18.3376 15.3949 17.8801 16.0733C17.4226 16.7517 16.8286 17.3272 16.136 17.763L11.009 21.031C8.08899 22.891 4.052 22.024 2.007 19.098C1.52204 18.4188 1.17759 17.6495 0.99385 16.8354C0.810112 16.0213 0.790782 15.1787 0.936995 14.357C1.0788 13.5724 1.37816 12.8247 1.817 12.159C1.1765 10.9383 0.961486 9.53873 1.206 8.18201C1.35051 7.37648 1.66157 6.60998 2.11925 5.93154C2.57694 5.2531 3.17119 4.67766 3.864 4.24201L8.99 0.974011ZM6.049 19.25C6.831 19.54 7.682 19.582 8.489 19.373C8.858 19.274 9.209 19.12 9.531 18.915L14.659 15.648C15.0756 15.3859 15.4328 15.0397 15.708 14.6316C15.9832 14.2235 16.1701 13.7625 16.257 13.278C16.3446 12.7839 16.3327 12.2774 16.2219 11.788C16.1112 11.2986 15.9038 10.8362 15.612 10.428C15.1369 9.74322 14.4632 9.22069 13.6817 8.93099C12.9002 8.64129 12.0486 8.59836 11.242 8.80801C10.873 8.90701 10.522 9.06101 10.2 9.26601L8.243 10.512C8.14595 10.5737 8.04007 10.6202 7.929 10.65C7.77144 10.6908 7.60734 10.6998 7.44626 10.6766C7.28518 10.6533 7.13034 10.5983 6.99074 10.5146C6.85114 10.431 6.72959 10.3204 6.63315 10.1893C6.53671 10.0582 6.46731 9.90919 6.429 9.75101C6.39573 9.60317 6.39233 9.45018 6.41899 9.30101C6.44513 9.15536 6.50131 9.01674 6.58395 8.89399C6.66659 8.77123 6.77388 8.66703 6.899 8.58801L12.028 5.32001C12.125 5.2583 12.2309 5.21177 12.342 5.18201C12.5852 5.11888 12.8419 5.13192 13.0774 5.21937C13.3129 5.30682 13.5159 5.46447 13.659 5.67101C13.816 5.89301 13.889 6.16301 13.866 6.43301L13.848 6.62301L14.039 6.68101C14.7595 6.89892 15.4375 7.23812 16.044 7.68401L16.307 7.87601L16.403 7.58101C16.455 7.42501 16.496 7.26501 16.526 7.10301C16.6138 6.60901 16.602 6.10246 16.4914 5.61307C16.3808 5.12367 16.1736 4.66128 15.882 4.25301C15.4069 3.56795 14.733 3.04519 13.9513 2.75531C13.1697 2.46542 12.3179 2.42239 11.511 2.63201C11.1423 2.73062 10.7909 2.88508 10.469 3.09001L5.34 6.35701C4.92302 6.61892 4.56533 6.965 4.28981 7.37311C4.0143 7.78122 3.82703 8.24236 3.74 8.72701C3.65232 9.22108 3.66422 9.72767 3.77498 10.2171C3.88574 10.7065 4.09313 11.1688 4.385 11.577C4.86023 12.2619 5.53417 12.7845 6.31582 13.0742C7.09748 13.3639 7.9492 13.4067 8.75599 13.197C9.12499 13.098 9.476 12.944 9.798 12.74L11.754 11.492C11.852 11.431 11.958 11.384 12.069 11.355C12.2265 11.3144 12.3906 11.3054 12.5516 11.3287C12.7127 11.352 12.8675 11.4071 13.007 11.4908C13.1466 11.5744 13.2681 11.685 13.3646 11.816C13.4611 11.947 13.5306 12.0959 13.569 12.254C13.603 12.401 13.606 12.554 13.58 12.703C13.5536 12.8488 13.4971 12.9875 13.4141 13.1103C13.3311 13.233 13.2234 13.3371 13.098 13.416L7.97099 16.685C7.87394 16.7464 7.76804 16.7926 7.65699 16.822C7.41392 16.8854 7.15724 16.8726 6.92169 16.7853C6.68614 16.698 6.48308 16.5405 6.34 16.334C6.18314 16.1124 6.10981 15.8425 6.133 15.572L6.14999 15.382L5.96 15.324C5.23945 15.1062 4.56137 14.767 3.955 14.321L3.692 14.129L3.596 14.424C3.54401 14.5803 3.50291 14.74 3.473 14.902C3.38529 15.396 3.39708 15.9026 3.50767 16.3919C3.61825 16.8813 3.82541 17.3437 4.117 17.752C4.59188 18.4371 5.26553 18.9599 6.047 19.25" fill="black"/>
</svg>
